#!OML:ASF F:\VICON\USERDATA\INSTALL\rory3\rory3.ASF
:FULLY-SPECIFIED
:DEGREES
149
root -0.240489 18.4965 2.68568 19.2827 80.6379 19.1448
lowerback 14.9105 0.068989 10.1621
upperback 5.02766 2.05922 4.26826
thorax -2.81009 1.18019 -1.56302
lowerneck -4.07909 -1.54412 -2.82719
upperneck 29.7672 -2.61947 7.46361
head 10.2566 -0.273691 2.98773
rclavicle 3.26007e-014 5.08889e-014
rhumerus -28.8453 -2.70321 -68.9982
rradius 46.8033
rwrist 7.37924
rhand -33.0203 3.94893
rfingers 7.12502
rthumb -6.23386 -25.9393
lclavicle 3.26007e-014 5.08889e-014
lhumerus -40.5976 12.6999 77.2009
lradius 21.3087
lwrist -13.9619
lhand -20.251 21.1314
lfingers 7.12502
lthumb 6.09745 51.0236
rfemur -13.5523 18.4861 16.1686
rtibia 34.4606
rfoot -21.4611 -16.7804
rtoes -2.42213
lfemur -48.045 17.49 -24.1663
ltibia 64.9065
lfoot -0.417359 -7.11126
ltoes -13.9327
150
root -0.193933 18.5082 2.66225 19.8564 80.4605 19.6917
lowerback 14.96 -0.0243419 10.111
upperback 5.02274 1.93286 4.21824
thorax -2.8545 1.11523 -1.56821
lowerneck -4.09784 -1.5395 -2.77001
upperneck 29.827 -2.61404 7.41495
head 10.2812 -0.270069 2.96222
rclavicle -3.33958e-014 -1.90833e-014
rhumerus -28.8178 -2.53219 -69.0241
rradius 46.7989
rwrist 7.39117
rhand -32.9535 4.26525
rfingers 7.12502
rthumb -6.16928 -25.6249
lclavicle -3.33958e-014 -1.90833e-014
lhumerus -40.4567 12.4707 77.1977
lradius 21.2489
lwrist -14.3325
lhand -21.1499 21.2777
lfingers 7.12502
lthumb 5.22964 51.1932
rfemur -13.2597 18.6056 15.9335
rtibia 34.0905
rfoot -21.4219 -16.7985
rtoes -2.57706
lfemur -48.0198 16.8958 -23.6548
ltibia 63.3119
lfoot 0.0555534 -5.87221
ltoes -8.85583
151
root -0.141216 18.5227 2.63403 20.1364 80.3217 19.9159
lowerback 14.8484 -0.104512 10.1253
upperback 5.04792 1.81444 4.24666
thorax -2.77955 1.06124 -1.52409
lowerneck -4.04518 -1.56923 -2.85176
upperneck 29.8226 -2.62308 7.31589
head 10.2696 -0.296538 2.9393
rclavicle -2.38542e-014 -1.59028e-014
rhumerus -28.7599 -2.47438 -68.8984
rradius 46.7577
rwrist 7.32551
rhand -32.8055 4.73251
rfingers 7.12502
rthumb -6.02648 -25.1618
lclavicle -2.38542e-014 -1.59028e-014
lhumerus -40.2792 11.945 77.4963
lradius 21.2365
lwrist -14.2694
lhand -22.0469 21.3589
lfingers 7.12502
lthumb 4.36346 51.2939
rfemur -12.9483 18.5272 15.7469
rtibia 33.6988
rfoot -21.3302 -16.7404
rtoes -3.00739
lfemur -47.9294 16.207 -23.0014
ltibia 61.6783
lfoot 0.450393 -4.78787
ltoes -5.30608
152
root -0.0897982 18.5353 2.60456 19.528 80.2353 19.1896
lowerback 14.7179 -0.192398 10.2444
upperback 5.0605 1.70512 4.34932
thorax -2.70555 1.0125 -1.46075
lowerneck -4.06947 -1.61746 -2.93463
upperneck 29.8911 -2.64471 7.15918
head 10.3007 -0.332098 2.897
rclavicle -7.95139e-016 -3.18055e-015
rhumerus -28.7027 -2.55316 -68.7663
rradius 46.6915
rwrist 7.24066
rhand -32.6922 5.37667
rfingers 7.12502
rthumb -5.91707 -24.5207
lclavicle -7.95139e-016 -3.18055e-015
lhumerus -40.1146 11.8798 77.537
lradius 21.2415
lwrist -14.2766
lhand -22.0531 20.8988
lfingers 7.12502
lthumb 4.35753 50.834
rfemur -12.6918 18.5849 15.7208
rtibia 33.2676
rfoot -21.2905 -16.7236
rtoes -3.09765
lfemur -47.8942 15.4709 -22.0956
ltibia 60.0482
lfoot 1.06476 -3.77922
ltoes -2.0532
153
root -0.0421726 18.5477 2.57685 18.931 80.0881 18.5122
lowerback 14.7228 -0.26897 10.3169
upperback 5.06608 1.62086 4.41134
thorax -2.70992 0.972153 -1.42139
lowerneck -4.102 -1.64196 -3.02732
upperneck 29.9603 -2.66579 7.1354
head 10.3352 -0.354058 2.90471
rclavicle 7.95139e-015 4.77083e-014
rhumerus -28.6579 -2.66554 -68.6971
rradius 46.5833
rwrist 7.21449
rhand -32.5675 5.43055
rfingers 7.12502
rthumb -5.79665 -24.4702
lclavicle 7.95139e-015 4.77083e-014
lhumerus -39.9032 11.7742 77.5595
lradius 21.31
lwrist -14.0607
lhand -21.9627 21.2098
lfingers 7.12502
lthumb 4.44478 51.1432
rfemur -12.4313 18.77 15.6769
rtibia 32.8465
rfoot -21.2954 -16.6943
rtoes -2.86682
lfemur -47.7603 14.6511 -21.0932
ltibia 58.4035
lfoot 0.72685 -6.12099
ltoes -20.4334
